<?xml version="1.0" encoding="utf-8"?>
<!-- Generator: Adobe Illustrator 17.0.0, SVG Export Plug-In . SVG Version: 6.00 Build 0)  -->
<!DOCTYPE svg PUBLIC "-//W3C//DTD SVG 1.0//EN" "http://www.w3.org/TR/2001/REC-SVG-20010904/DTD/svg10.dtd">
<svg version="1.0" id="Layer_1" xmlns="http://www.w3.org/2000/svg" xmlns:xlink="http://www.w3.org/1999/xlink" x="0px" y="0px"
	 width="24.679px" height="24.191px" viewBox="0 0 24.679 24.191" enable-background="new 0 0 24.679 24.191" xml:space="preserve">
<rect x="3.393" y="4.351" width="1" height="5.114"/>
<rect x="3.393" y="13.351" width="1" height="7.506"/>
<rect x="14.923" y="4.456" width="0.5" height="5.114"/>
<rect x="9.256" y="4.456" width="0.5" height="5.114"/>
<rect x="23.679" y="2.684" width="1" height="18.12"/>
<rect x="19.851" y="4.178" width="1" height="5.672"/>
<path d="M12.342,23.966H6.631c-0.138,0-0.25-0.112-0.25-0.25v-8.304c0-0.138,0.112-0.25,0.25-0.25h5.711
	c0.138,0,0.25,0.112,0.25,0.25v8.304C12.592,23.854,12.479,23.966,12.342,23.966z M6.881,23.466h5.211v-7.804H6.881V23.466z"/>
<rect x="14.923" y="13.351" width="0.5" height="7.499"/>
<rect x="17.759" y="13.499" width="0.5" height="10.044"/>
<rect x="20.593" y="13.499" width="0.5" height="10.044"/>
<path d="M7.733,20.496c-0.138,0-0.25-0.112-0.25-0.25v-1.175c0-0.138,0.112-0.25,0.25-0.25s0.25,0.112,0.25,0.25v1.175
	C7.983,20.384,7.871,20.496,7.733,20.496z"/>
<path d="M23.679,0H1C0.447,0,0,0.447,0,1v2.834c0,0.553,0.447,1,1,1h19.843v-1H1V1h22.679v2.533v0.301v1c0.553,0,1-0.447,1-1V1
	C24.679,0.447,24.231,0,23.679,0z"/>
<path d="M23.679,9v1v0.92v1.914H1V10h19.843V9H1c-0.553,0-1,0.447-1,1v2.834c0,0.553,0.447,1,1,1h22.679c0.553,0,1-0.447,1-1V10
	C24.679,9.447,24.231,9,23.679,9z"/>
<circle cx="17.923" cy="23.677" r="0.504"/>
<circle cx="13.923" cy="23.677" r="0.504"/>
<circle cx="15.923" cy="23.677" r="0.504"/>
<circle cx="15.171" cy="20.85" r="0.266"/>
<path d="M24.179,12.851H3.893c-0.276,0-0.5,0.224-0.5,0.5v10.341c0,0.276,0.224,0.5,0.5,0.5h10.03v-1h-9.53v-9.341h19.286v9.341
	h-5.756v1h6.256c0.277,0,0.5-0.224,0.5-0.5V13.351C24.679,13.074,24.456,12.851,24.179,12.851z"/>
</svg>
